# AST/ASF file generated using VICON BodyLanguage
# -----------------------------------------------
:version 1.10
:name VICON
:units
  mass 1.0
  length 0.45
  angle deg
:documentation
   .ast/.asf automatically generated from VICON data using
   VICON BodyBuilder and BodyLanguage model FoxedUp or BRILLIANT.MOD
:root
   order TX TY TZ RX RY RZ
   axis XYZ
   position 0 0 0  
   orientation 0 0 0 
:bonedata
  begin
     id 1 
     name lhipjoint
     direction 0.62366 -0.717238 0.310833 
     length 2.53602 
     axis 0 0 0  XYZ
  end
  begin
     id 2 
     name lfemur
     direction 0.34202 -0.939693 0  
     length 7.40817  
     axis 0 0 20  XYZ
    dof rx ry rz
    limits (-160.0 20.0)
           (-70.0 70.0)
           (-60.0 70.0)
  end
  begin
     id 3 
     name ltibia
     direction 0.34202 -0.939693 0   
     length 7.7045   
     axis 0 0 20   XYZ
    dof rx
    limits (-10.0 170.0)
  end
  begin
     id 4 
     name lfoot
     direction 0.0673888 -0.185149 0.980397   
     length 2.09456   
     axis -90 7.62852e-016 20   XYZ
    dof rx rz
    limits (-45.0 90.0)
           (-70.0 20.0)
  end
  begin
     id 5 
     name ltoes
     direction 1.53575e-011 -4.21994e-011 1   
     length 1.05543   
     axis -90 7.62852e-016 20   XYZ
    dof rx
    limits (-90.0 20.0)
  end
  begin
     id 6 
     name rhipjoint
     direction -0.489018 -0.800347 0.346851   
     length 2.27268  
     axis 0 0 0  XYZ 
  end
  begin
     id 7 
     name rfemur
     direction -0.34202 -0.939693 0   
     length 7.55487   
     axis 0 0 -20   XYZ
    dof rx ry rz
    limits (-160.0 20.0)
           (-70.0 70.0)
           (-70.0 60.0)
  end
  begin
     id 8 
     name rtibia
     direction -0.34202 -0.939693 0   
     length 7.78969   
     axis 0 0 -20   XYZ
    dof rx
    limits (-10.0 170.0)
 end
 begin
     id 9 
     name rfoot
     direction -0.0859318 -0.236096 0.967923   
     length 2.19143  
     axis -90 -7.62852e-016 -20   XYZ
    dof rx rz
    limits (-45.0 90.0)
           (-20.0 70.0)
  end
  begin
     id 10 
     name rtoes
     direction -1.53538e-011 -4.21989e-011 1   
     length 1.09845   
     axis -90 -7.62852e-016 -20   XYZ
    dof rx
    limits (-90.0 20.0)
  end
  begin
     id 11 
     name lowerback
     direction -0.00762546 0.998978 -0.0445553   
     length 1.98161   
     axis 0 0 0   XYZ
    dof rx ry rz
    limits (-20.0 45.0)
           (-30.0 30.0)
           (-30.0 30.0)
  end
  begin
     id 12 
     name upperback
     direction 0.0422361 0.998867 -0.0219156   
     length 1.97558   
     axis 0 0 0   XYZ
    dof rx ry rz
    limits (-20.0 45.0)
           (-30.0 30.0)
           (-30.0 30.0)
  end
  begin
     id 13 
     name thorax
     direction 0.0442465 0.999021 7.47603e-005   
     length 1.97799   
     axis 0 0 0   XYZ
    dof rx ry rz
    limits (-20.0 45.0)
           (-30.0 30.0)
           (-30.0 30.0)
  end
  begin
     id 14 
     name lowerneck
     direction 0.00312169 0.984641 0.174564   
     length 1.78995   
     axis 0 0 0   XYZ
    dof rx ry rz
    limits (-20.0 45.0)
           (-30.0 30.0)
           (-30.0 30.0)
  end
  begin
     id 15 
     name upperneck
     direction -0.0383028 0.985255 -0.166749   
     length 1.83053   
     axis 0 0 0   XYZ
    dof rx ry rz
    limits (-20.0 45.0)
           (-30.0 30.0)
           (-30.0 30.0)
  end
  begin
     id 16
     name head
     direction -0.0129546 0.997059 -0.0755386  
     length 1.84088  
     axis 0 0 0   XYZ
    dof rx ry rz
    limits (-20.0 45.0)
           (-30.0 30.0)
           (-30.0 30.0)
  end
  begin
     id 17 
     name lclavicle
     direction 0.912857 0.370519 -0.171488  
     length 3.51279  
     axis 0 0 0   XYZ
    dof ry rz
    limits (-20.0 10.0)
           (0.0 20.0)
  end
  begin
     id 18 
     name lhumerus
     direction 1 -4.48962e-011 3.64361e-027   
     length 4.95663   
     axis 180 -30 -90   XYZ
    dof rx ry rz
    limits (-60.0 90.0)
           (-90.0 90.0)
           (-90.0 90.0)
  end
  begin
     id 19
     name lradius
     direction 1 -4.48974e-011 5.97202e-027   
     length 3.38177   
     axis 180 -30 -90   XYZ
    dof rx
    limits (-10.0 170.0)
  end
  begin
     id 20
     name lwrist
     direction 1 -4.4896e-011 9.83288e-027   
     length 1.69088   
     axis -9.31221e-015 90 90   XYZ
    dof ry
    limits (-180.0 0.0)
 end
  begin
     id 21 
     name lhand
     direction 1 -4.4902e-011 1.96551e-026   
     length 0.662909   
     axis -1.25475e-014 90 90   XYZ
    dof rx rz
    limits (-90.0 90.0)
           (-45.0 45.0)
  end
  begin
     id 22 
     name lfingers
     direction 1 -4.48971e-011 3.93277e-026   
     length 0.534454   
     axis -2.50945e-014 90 90   XYZ
    dof rx
    limits (0.0 90.0)
  end
  begin
     id 23
     name lthumb
     direction 0.707107 -6.34933e-011 0.707107   
     length 0.767373   
     axis -90 45 -4.80359e-014   XYZ
    dof rx rz
    limits (-45.0 45.0)
           (-45.0 45.0)
  end
  begin
     id 24 
     name rclavicle
     direction -0.900919 0.395364 -0.178976   
     length 3.40627  
     axis 0 0 0   XYZ 
    dof ry rz
    limits (-10.0 20.0)
           (-20.0 0.0)
  end
  begin
     id 25 
     name rhumerus
     direction -1 -4.48969e-011 1.03875e-027  
     length 5.08365   
     axis 180 30 90   XYZ
    dof rx ry rz
    limits (-90.0 60.0)
           (-90.0 90.0)
           (-90.0 90.0)
  end
  begin
     id 26 
     name rradius
     direction -1 -4.48951e-011 5.02733e-027   
     length 3.35984   
     axis 180 30 90   XYZ
    dof rx
    limits (-10.0 170.0)
  end
  begin
     id 27 
     name rwrist
     direction -1 -4.49011e-011 9.82828e-027   
     length 1.67992   
     axis -9.31221e-015 -90 -90   XYZ
    dof ry
    limits (-180.0 0.0)
  end
  begin
     id 28
     name rhand
     direction -1 -4.48894e-011 1.96774e-026   
     length 0.820764   
     axis -1.25475e-014 -90 -90   XYZ
    dof rx rz
    limits (-90.0 90.0)
           (-45.0 45.0)
  end
  begin
     id 29
     name rfingers
     direction -1 -4.49095e-011 3.92833e-026   
     length 0.661721   
     axis -2.50945e-014 -90 -90   XYZ
    dof rx
    limits (0.0 90.0)
  end
  begin
     id 30
     name rthumb
     direction -0.707107 -6.34881e-011 0.707107   
     length 0.950103   
     axis -90 -45 4.80359e-014   XYZ
    dof rx rz
    limits (-45.0 45.0)
           (-45.0 45.0)
  end
:hierarchy
  begin
    root lhipjoint rhipjoint lowerback
    lhipjoint lfemur
    lfemur ltibia
    ltibia lfoot
    lfoot ltoes
    rhipjoint rfemur
    rfemur rtibia
    rtibia rfoot
    rfoot rtoes
    lowerback upperback
    upperback thorax
    thorax lowerneck lclavicle rclavicle
    lowerneck upperneck
    upperneck head
    lclavicle lhumerus
    lhumerus lradius
    lradius lwrist
    lwrist lhand lthumb
    lhand lfingers
    rclavicle rhumerus
    rhumerus rradius
    rradius rwrist
    rwrist rhand rthumb
    rhand rfingers
  end

#!OML:ASF I:\golf\golf\golf 2\Subject 1\2002-09-07\Subject1.ASF
:FULLY-SPECIFIED
:DEGREES
35
root -8.67398 18.0505 5.39753 -24.8107 83.588 -43.6351
lowerback 6.90523 2.0163 -1.31227
upperback 7.40306 2.83974 4.14478
thorax 3.54847 1.37633 4.94667
lowerneck -11.4549 0.943648 4.79473
upperneck 40.8931 4.82194 -5.87314
head 17.087 2.54569 -2.51373
rclavicle -1.15295e-014 3.97569e-015
rhumerus -17.4596 37.7842 -96.5178
rradius 57.2139
rwrist -55.9742
rhand -33.5046 -15.9732
rfingers 7.12502
rthumb -6.70139 -45.8472
lclavicle -1.15295e-014 3.97569e-015
lhumerus -18.5925 -46.3306 106.795
lradius 61.3931
lwrist 63.3023
lhand -14.2706 66.0688
lfingers 7.12502
lthumb -168.132 84.2875
rfemur -36.5009 -0.951884 20.5744
rtibia 27.4071
rfoot -5.31003 -2.55191
rtoes 5.85406
lfemur -34.4567 4.24314 -12.0191
ltibia 26.0583
lfoot -7.96708 -3.92397
ltoes -10.95
36
root -8.67532 18.0489 5.39708 -24.9697 83.6263 -43.794
lowerback 6.94164 2.05054 -1.21486
upperback 7.41342 2.89004 4.08384
thorax 3.54095 1.40743 4.82381
lowerneck -11.4811 1.0906 5.06968
upperneck 40.891 4.92507 -5.78312
head 17.1072 2.63939 -2.50523
rclavicle 2.98177e-014 5.48646e-014
rhumerus -17.4113 37.6613 -96.533
rradius 57.3042
rwrist -56.0375
rhand -33.6269 -16.0953
rfingers 7.12502
rthumb -6.81939 -45.9655
lclavicle 2.98177e-014 5.48646e-014
lhumerus -18.6121 -46.6398 106.753
lradius 61.399
lwrist 63.2888
lhand -13.9934 65.8562
lfingers 7.12502
lthumb -167.865 84.5158
rfemur -36.5261 -0.982313 20.565
rtibia 27.4517
rfoot -5.32425 -2.55259
rtoes 5.93117
lfemur -34.5002 4.41812 -12.1148
ltibia 26.0635
lfoot -8.04593 -4.13956
ltoes -11.5032
37
root -8.67668 18.0475 5.39699 -25.0437 83.6386 -43.8619
lowerback 6.98745 2.08293 -1.1422
upperback 7.42647 2.93721 4.05109
thorax 3.52942 1.43548 4.74454
lowerneck -11.4741 1.2565 5.25781
upperneck 40.8385 5.06059 -5.65851
head 17.0898 2.7362 -2.45824
rclavicle -2.42517e-014 8.74653e-015
rhumerus -17.3581 37.5667 -96.4907
rradius 57.382
rwrist -56.0525
rhand -33.6297 -16.1438
rfingers 7.12502
rthumb -6.8221 -46.0139
lclavicle -2.42517e-014 8.74653e-015
lhumerus -18.6024 -46.8743 106.724
lradius 61.4582
lwrist 63.4007
lhand -14.1265 65.9366
lfingers 7.12502
lthumb -167.993 84.4278
rfemur -36.5481 -0.916338 20.5258
rtibia 27.514
rfoot -5.34413 -2.60763
rtoes 6.01378
lfemur -34.4885 4.24425 -12.051
ltibia 26.0727
lfoot -8.06344 -3.97427
ltoes -11.7314
38
root -8.67682 18.0452 5.39625 -24.6636 83.6498 -43.4907
lowerback 7.02563 2.13382 -1.07699
upperback 7.41694 3.0075 3.99203
thorax 3.49723 1.47519 4.64008
lowerneck -11.5295 1.42252 5.39721
upperneck 40.891 5.19381 -5.45095
head 17.1428 2.83709 -2.36643
rclavicle 1.47101e-014 -4.21423e-014
rhumerus -17.3658 37.3637 -96.4793
rradius 57.4385
rwrist -55.9675
rhand -33.6384 -16.3115
rfingers 7.12502
rthumb -6.83052 -46.1813
lclavicle 1.47101e-014 -4.21423e-014
lhumerus -18.6867 -47.1142 106.757
lradius 61.524
lwrist 63.4745
lhand -14.4984 65.8748
lfingers 7.12502
lthumb -168.352 84.469
rfemur -36.6029 -0.852956 20.4477
rtibia 27.5957
rfoot -5.33673 -2.66247
rtoes 5.72032
lfemur -34.481 4.06466 -12.0257
ltibia 26.0793
lfoot -8.03626 -3.77882
ltoes -11.5927
39
root -8.67693 18.0444 5.3943 -24.4828 83.6934 -43.3103
lowerback 7.05109 2.17077 -0.99699
upperback 7.42796 3.06063 3.94566
thorax 3.49575 1.50647 4.54295
lowerneck -11.6194 1.59413 5.49507
upperneck 40.9413 5.34945 -5.25468
head 17.2048 2.93825 -2.26741
rclavicle 4.37326e-015 1.51076e-014
rhumerus -17.3631 37.1791 -96.448
rradius 57.5072
rwrist -55.8974
rhand -33.7409 -16.4745
rfingers 7.12502
rthumb -6.92941 -46.3411
lclavicle 4.37326e-015 1.51076e-014
lhumerus -18.722 -47.3634 106.784
lradius 61.5672
lwrist 63.4685
lhand -14.4759 65.9735
lfingers 7.12502
lthumb -168.33 84.3715
rfemur -36.6489 -0.94249 20.4359
rtibia 27.679
rfoot -5.34272 -2.64619
rtoes 5.18314
lfemur -34.4915 4.01993 -12.0696
ltibia 26.0831
lfoot -8.02237 -3.75742
ltoes -11.4465
40
root -8.67752 18.0452 5.39333 -24.3733 83.7336 -43.1952
lowerback 7.06101 2.20608 -0.980106
upperback 7.4604 3.10959 3.9468
thorax 3.52108 1.53172 4.53322
lowerneck -11.6239 1.78071 5.66421
upperneck 40.8749 5.55949 -5.22153
head 17.1932 3.0506 -2.2448
rclavicle 2.22639e-014 1.59028e-015
rhumerus -17.294 37.0498 -96.3571
rradius 57.5281
rwrist -55.8415
rhand -33.7993 -16.5373
rfingers 7.12502
rthumb -6.98586 -46.4021
lclavicle 2.22639e-014 1.59028e-015
lhumerus -18.6716 -47.5501 106.794
lradius 61.6179
lwrist 63.4379
lhand -14.2552 65.9119
lfingers 7.12502
lthumb -168.117 84.4453
rfemur -36.6843 -1.03962 20.4384
rtibia 27.7525
rfoot -5.38235 -2.60835
rtoes 5.00951
lfemur -34.4994 4.04352 -12.1273
ltibia 26.0842
lfoot -8.04259 -3.81585
ltoes -11.4055
